<svg width="100" height="100" viewBox="0 0 100 100" fill="none" xmlns="http://www.w3.org/2000/svg">
<rect width="100" height="100" rx="50" fill="white"/>
<g clip-path="url(#clip0_628_1897)">
<path d="M78.3387 49.8313L69.7889 45.0481L68.3169 44.4219L33.3374 44.6594V61.9781H78.3387V49.8313Z" fill="white"/>
<path d="M62.7721 60.3858C63.1927 58.9876 63.0322 57.7027 62.335 56.7526C61.6986 55.878 60.6195 55.3705 59.3245 55.3111L34.793 54.998C34.6325 54.998 34.4941 54.9224 34.4167 54.8037C34.3392 54.6903 34.3171 54.5337 34.3558 54.3772C34.4333 54.145 34.6768 53.9669 34.9313 53.9507L59.6842 53.6376C62.6117 53.5026 65.8047 51.1866 66.917 48.347L68.3337 44.7515C68.3945 44.5949 68.4111 44.4384 68.3724 44.2872C66.7786 37.2474 60.3428 32 52.6507 32C45.5563 32 39.5355 36.47 37.3828 42.673C35.9883 41.6635 34.2119 41.1182 32.3027 41.291C28.8939 41.6203 26.1657 44.2872 25.8281 47.6073C25.7507 48.4603 25.806 49.2971 26.0052 50.0745C20.4437 50.2365 16 54.6687 16 60.1321C16 60.618 16.0387 61.1038 16.0996 61.5897C16.1383 61.8218 16.3376 62 16.5755 62H61.8535C62.1136 62 62.3516 61.8272 62.429 61.5735L62.7721 60.3858Z" fill="#F48120"/>
<path d="M70.5859 45.0049C70.3645 45.0049 70.1266 45.0049 69.9107 45.0265C69.7503 45.0265 69.6119 45.1452 69.551 45.2964L68.5937 48.541C68.1731 49.9392 68.3336 51.2241 69.0309 52.1742C69.6672 53.0488 70.7463 53.5563 72.0413 53.6156L77.2652 53.9288C77.4257 53.9288 77.5641 54.0043 77.6415 54.1231C77.719 54.2419 77.7411 54.4146 77.7024 54.5496C77.6249 54.7817 77.3814 54.9599 77.1269 54.9761L71.6871 55.2892C68.7376 55.4242 65.5667 57.7402 64.4544 60.5744L64.0559 61.5678C63.9784 61.7621 64.1168 61.9565 64.3326 61.9565H83.026C83.2473 61.9565 83.4465 61.8215 83.5019 61.6056C83.8228 60.4773 83.9999 59.2896 83.9999 58.0695C83.9999 50.8786 77.9791 45.0049 70.5859 45.0049Z" fill="#FAAD3F"/>
</g>
<defs>
<clipPath id="clip0_628_1897">
<rect width="68" height="30" fill="white" transform="translate(16 32)"/>
</clipPath>
</defs>
</svg>
