<svg width="100" height="100" viewBox="0 0 100 100" fill="none" xmlns="http://www.w3.org/2000/svg">
<g clip-path="url(#clip0_628_1907)">
<path fill-rule="evenodd" clip-rule="evenodd" d="M50 0C77.6143 0 100 22.3857 100 50C100 77.6143 77.6143 100 50 100C22.3857 100 0 77.6143 0 50C0 22.3857 22.3857 0 50 0Z" fill="#5865F2"/>
<path d="M70.4948 31.3709C66.6141 29.596 62.5179 28.3365 58.3104 27.6244C57.7371 28.6542 57.2178 29.7131 56.7545 30.7969C54.5166 30.4593 52.2565 30.2895 49.9932 30.2887C47.7336 30.2887 45.4627 30.4604 43.2309 30.7926C42.775 29.7166 42.2457 28.6496 41.6711 27.624C37.4635 28.3429 33.367 29.6048 29.4842 31.3783C21.7727 42.7861 19.6829 53.909 20.7278 64.8738C25.2433 68.209 30.2971 70.7456 35.6696 72.3734C36.8745 70.7469 37.9538 69.0154 38.87 67.2137C37.1217 66.5622 35.4345 65.7571 33.8284 64.8078C34.2512 64.5014 34.6645 64.1855 35.0637 63.8789C39.734 66.0723 44.837 67.2164 49.9998 67.2164C55.1631 67.2164 60.2661 66.0723 64.9364 63.8785C65.3405 64.2084 65.754 64.5242 66.1717 64.8074C64.5625 65.7586 62.8724 66.5659 61.1211 67.2199C62.0406 69.0256 63.1112 70.7502 64.3215 72.3754C69.6989 70.7528 74.7567 68.2163 79.2733 64.8771L79.2721 64.8783C80.4983 52.1629 77.1776 41.1422 70.4948 31.3709ZM40.1915 58.1305C37.2797 58.1305 34.8739 55.4879 34.8739 52.2371C34.8739 48.9861 37.1959 46.3203 40.1823 46.3203C43.1684 46.3203 45.5555 48.9861 45.5043 52.2371C45.4534 55.4879 43.1592 58.1305 40.1915 58.1305ZM59.8084 58.1305C56.8918 58.1305 54.4955 55.4879 54.4955 52.2371C54.4955 48.9861 56.8176 46.3203 59.8084 46.3203C62.7993 46.3203 65.1678 48.9861 65.1166 52.2371C65.0657 55.4879 62.776 58.1305 59.8084 58.1305Z" fill="white"/>
</g>
<defs>
<clipPath id="clip0_628_1907">
<rect width="100" height="100" fill="white"/>
</clipPath>
</defs>
</svg>
