<svg width="100" height="100" viewBox="0 0 100 100" fill="none" xmlns="http://www.w3.org/2000/svg">
<g clip-path="url(#clip0_514_1474)">
<path d="M101.565 50.0554H-1.56472L-1.56543 50.0003C-1.56543 21.5209 21.5207 -1.56543 50.0003 -1.56543C78.4789 -1.56543 101.566 21.5209 101.566 50.0003L101.565 50.0554Z" fill="white"/>
<path d="M-1.56494 50.0557H101.565C101.536 78.5091 78.4606 101.566 50.0001 101.566C21.5388 101.566 -1.53539 78.5091 -1.56494 50.0557Z" fill="#D52B1E"/>
<path d="M1.39974 32.7363H98.6008C100.519 38.1339 101.566 43.9441 101.566 50C101.566 56.0967 100.505 61.9453 98.5622 67.3743H1.43834C-0.504602 61.9453 -1.56543 56.0967 -1.56543 50C-1.56543 43.9441 -0.517947 38.1339 1.39974 32.7363Z" fill="#0039A6"/>
<g filter="url(#filter0_d_514_1474)">
<path d="M49.9996 0C63.8064 0 76.3063 5.59652 85.3541 14.6452C94.4019 23.6938 99.9992 36.1939 99.9992 50.0008C99.9992 63.8078 94.4019 76.307 85.3541 85.3556C76.3072 94.4035 63.8064 100 49.9996 100C36.1927 100 23.6928 94.4035 14.6451 85.3556C5.59647 76.307 0 63.807 0 50C0 36.193 5.59647 23.693 14.6451 14.6444C23.6928 5.59652 36.1936 0 49.9996 0ZM84.3523 22.6139L22.6137 84.3522C30.1243 90.3475 39.6432 93.9315 49.9996 93.9315C62.1308 93.9315 73.1138 89.0137 81.0638 81.0636C89.0138 73.1136 93.9315 62.1305 93.9315 49.9992C93.9315 39.6427 90.3476 30.1237 84.3523 22.6139ZM18.1387 80.2466L80.2459 18.1388C72.37 10.6592 61.7215 6.06852 49.9996 6.06852C37.8675 6.06852 26.8845 10.9855 18.9354 18.9355C10.9862 26.8848 6.06847 37.8678 6.06847 50C6.06847 61.7212 10.6591 72.3698 18.1387 80.2466Z" fill="#FF0000"/>
</g>
</g>
<defs>
<filter id="filter0_d_514_1474" x="-5" y="-6" width="109.999" height="110" filterUnits="userSpaceOnUse" color-interpolation-filters="sRGB">
<feFlood flood-opacity="0" result="BackgroundImageFix"/>
<feColorMatrix in="SourceAlpha" type="matrix" values="0 0 0 0 0 0 0 0 0 0 0 0 0 0 0 0 0 0 127 0" result="hardAlpha"/>
<feOffset dy="-1"/>
<feGaussianBlur stdDeviation="2.5"/>
<feColorMatrix type="matrix" values="0 0 0 0 0 0 0 0 0 0 0 0 0 0 0 0 0 0 0.4 0"/>
<feBlend mode="normal" in2="BackgroundImageFix" result="effect1_dropShadow_514_1474"/>
<feBlend mode="normal" in="SourceGraphic" in2="effect1_dropShadow_514_1474" result="shape"/>
</filter>
<clipPath id="clip0_514_1474">
<rect width="100" height="100" rx="50" fill="white"/>
</clipPath>
</defs>
</svg>
