<svg width="100" height="100" viewBox="0 0 100 100" fill="none" xmlns="http://www.w3.org/2000/svg">
<g clip-path="url(#clip0_628_1924)">
<path fill-rule="evenodd" clip-rule="evenodd" d="M50 0C77.6123 0 100 22.3877 100 50C100 77.6123 77.6123 100 50 100C22.3877 100 0 77.6123 0 50C0 22.3877 22.3877 0 50 0Z" fill="#2394E0"/>
<path fill-rule="evenodd" clip-rule="evenodd" d="M9.57031 75.8298C6.62435 71.362 4.41895 66.3571 3.125 60.9941L11.9303 65.2422L11.9792 67.8708C11.9792 68.8392 10.3353 70.89 9.80632 71.6712L9.57031 75.8298ZM63.7288 5.28939C80.5094 10.8639 93.099 25.6344 95.5241 43.6195L93.9372 43.4486C93.6524 44.6693 93.3919 44.6937 93.3919 46.1585C93.3919 47.4525 95.0195 48.3151 95.0195 51.0413C95.0195 51.7738 93.3024 53.2305 93.2292 53.4909L90.682 50.5042V54.3047L90.2995 54.2884L89.6159 47.2734L88.1917 47.721L86.499 42.5046L80.9245 48.3314L80.8594 52.5957L79.0365 53.8164L77.0996 42.8789L75.944 43.7253L73.3236 40.1852L69.4092 40.2992L67.9118 38.582L66.3737 39.0052L63.3545 35.5466L62.7686 35.9453L64.6403 40.7305H66.8132V39.6481H67.8955C68.6768 41.8128 69.5231 40.527 69.5231 41.821C69.5231 46.3376 63.9486 49.6579 60.2946 50.5042C60.4899 51.318 60.4167 52.1318 61.377 52.1318C63.4196 52.1318 62.4023 51.7738 64.6322 51.5866C64.5264 56.2008 59.3425 61.7103 57.1289 65.1364L58.1217 72.2083C58.3822 73.7464 54.9316 75.3659 53.7598 77.0993L54.3213 79.8092L52.7344 80.4522C52.4577 83.2354 49.7559 86.3197 46.7204 86.3197H43.4652C43.4652 82.5111 40.7471 77.0667 40.7471 74.373C40.7471 72.0863 41.8294 71.777 41.8294 68.945C41.8294 66.3245 39.1195 62.5729 39.1195 61.8893V57.5436H36.9466C36.6211 56.3311 36.8245 55.916 35.319 55.916H34.7738C32.4056 55.916 32.8044 56.9984 30.4281 56.9984H28.2552C26.2939 56.9984 22.8271 50.7158 22.8271 49.9427V43.4323C22.8271 40.6247 25.3988 37.5648 27.1729 36.3766V33.6667L29.6143 31.1846L30.9733 30.9567C33.8867 30.9567 33.5368 29.3291 35.319 29.3291H40.2018V33.1296L45.5729 35.4245L46.0775 33.1051C48.5107 33.6748 49.1455 34.7572 52.1403 34.7572H53.2227C55.2816 34.7572 55.3955 32.0228 55.3955 29.8744L51.0498 30.3057L49.1536 26.1878L47.2738 26.6842C47.6156 28.1572 47.7946 27.5469 47.7946 28.792C47.7946 29.5244 47.1924 29.6058 46.7041 29.8744L44.8242 25.1055L40.7796 22.2165L40.2425 22.7454L43.6849 26.3669C43.2292 27.6689 43.1722 31.4206 41.276 28.792L43.0501 27.9375L38.623 23.2988L35.9701 24.3324L33.3496 26.8389C33.0729 28.8571 32.5277 29.8744 30.4118 29.8744C29.0039 29.8744 29.8503 29.5081 27.6937 29.3291V23.901H32.5765L30.9896 20.2878L30.4036 20.6458V19.5553L38.3382 15.9014C38.1917 14.762 38.0046 15.3724 38.0046 14.1273C38.0046 14.054 38.5335 13.0531 38.5498 13.0368L40.6006 14.3145L40.1123 11.9788L36.9466 12.6299L36.3607 9.78971C38.8672 8.47135 44.3929 3.81641 46.1507 3.81641H47.7783C49.4954 3.81641 54.0853 5.50911 54.834 6.52637L50.4801 6.08691L53.7109 8.74805L54.0202 7.60872L56.429 6.94954L56.4616 5.44401H57.5521V7.07161L63.7288 5.28939Z" fill="#A1E367"/>
</g>
<defs>
<clipPath id="clip0_628_1924">
<rect width="100" height="100" fill="white"/>
</clipPath>
</defs>
</svg>
