<svg width="100" height="100" viewBox="0 0 100 100" fill="none" xmlns="http://www.w3.org/2000/svg">
<rect width="100" height="100" rx="50" fill="white"/>
<path d="M88.85 42.5H50V58.475H72.2C71.225 63.6125 68.3 67.9625 63.9125 70.8875C60.2375 73.3625 55.55 74.8625 50 74.8625C39.275 74.8625 30.1625 67.625 26.9 57.875H26.8512L26.9 57.8375C26.075 55.3625 25.5875 52.7375 25.5875 50C25.5875 47.2625 26.075 44.6375 26.9 42.1625C30.1625 32.4125 39.275 25.175 50 25.175C56.075 25.175 61.475 27.275 65.7875 31.325L77.6 19.5125C70.4375 12.8375 61.1375 8.75 50 8.75C33.875 8.75 19.9625 18.0125 13.175 31.5125C10.3625 37.0625 8.75 43.325 8.75 50C8.75 56.675 10.3625 62.9375 13.175 68.4875V68.525C19.9625 81.9875 33.875 91.25 50 91.25C61.1375 91.25 70.475 87.575 77.3 81.275C85.1 74.075 89.6 63.5 89.6 50.9375C89.6 48.0125 89.3375 45.2 88.85 42.5Z" fill="#FC4C53"/>
<mask id="mask0_518_1457" style="mask-type:luminance" maskUnits="userSpaceOnUse" x="8" y="8" width="82" height="84">
<path d="M88.85 42.5H50V58.475H72.2C71.225 63.6125 68.3 67.9625 63.9125 70.8875C60.2375 73.3625 55.55 74.8625 50 74.8625C39.275 74.8625 30.1625 67.625 26.9 57.875H26.8512L26.9 57.8375C26.075 55.3625 25.5875 52.7375 25.5875 50C25.5875 47.2625 26.075 44.6375 26.9 42.1625C30.1625 32.4125 39.275 25.175 50 25.175C56.075 25.175 61.475 27.275 65.7875 31.325L77.6 19.5125C70.4375 12.8375 61.1375 8.75 50 8.75C33.875 8.75 19.9625 18.0125 13.175 31.5125C10.3625 37.0625 8.75 43.325 8.75 50C8.75 56.675 10.3625 62.9375 13.175 68.4875V68.525C19.9625 81.9875 33.875 91.25 50 91.25C61.1375 91.25 70.475 87.575 77.3 81.275C85.1 74.075 89.6 63.5 89.6 50.9375C89.6 48.0125 89.3375 45.2 88.85 42.5Z" fill="white"/>
</mask>
<g mask="url(#mask0_518_1457)">
<path d="M18.6725 95.1542C34.7337 95.1542 47.7538 77.5775 47.7538 55.8955C47.7538 34.2135 34.7337 16.6367 18.6725 16.6367C2.61142 16.6367 -10.4087 34.2135 -10.4087 55.8955C-10.4087 77.5775 2.61142 95.1542 18.6725 95.1542Z" fill="url(#paint0_radial_518_1457)"/>
<path d="M68.8291 134.983C101.228 130.936 125.002 107.721 121.931 83.1321C118.859 58.5429 90.1049 41.8901 57.7063 45.937C25.3077 49.984 1.53337 73.1982 4.60484 97.7874C7.67631 122.377 36.4305 139.029 68.8291 134.983Z" fill="url(#paint1_radial_518_1457)"/>
<path d="M46.644 36.0508L48.4853 57.0358L50.8215 71.087L78.429 96.767L110.705 37.1533L46.644 36.0508Z" fill="url(#paint2_linear_518_1457)"/>
</g>
<defs>
<radialGradient id="paint0_radial_518_1457" cx="0" cy="0" r="1" gradientUnits="userSpaceOnUse" gradientTransform="translate(18.676 55.8945) scale(29.0809 39.2548)">
<stop offset="0.368" stop-color="#FFCF09"/>
<stop offset="0.718" stop-color="#FFCF09" stop-opacity="0.7"/>
<stop offset="1" stop-color="#FFCF09" stop-opacity="0"/>
</radialGradient>
<radialGradient id="paint1_radial_518_1457" cx="0" cy="0" r="1" gradientUnits="userSpaceOnUse" gradientTransform="translate(63.2689 90.4597) rotate(-7.12) scale(59.1168 44.8677)">
<stop offset="0.383" stop-color="#34A853"/>
<stop offset="0.706" stop-color="#34A853" stop-opacity="0.7"/>
<stop offset="1" stop-color="#34A853" stop-opacity="0"/>
</radialGradient>
<linearGradient id="paint2_linear_518_1457" x1="93.3428" y1="28.5733" x2="50.5553" y2="81.122" gradientUnits="userSpaceOnUse">
<stop offset="0.671" stop-color="#4285F4"/>
<stop offset="0.885" stop-color="#4285F4" stop-opacity="0"/>
</linearGradient>
</defs>
</svg>
