<svg width="100" height="100" viewBox="0 0 100 100" fill="none" xmlns="http://www.w3.org/2000/svg">
<g clip-path="url(#clip0_689_1730)">
<g clip-path="url(#clip1_689_1730)">
<path d="M100 0H0V100H100V0Z" fill="#111111"/>
<mask id="mask0_689_1730" style="mask-type:luminance" maskUnits="userSpaceOnUse" x="19" y="22" width="58" height="52">
<path d="M76.253 22.1396H19.2808V73.8332H76.253V22.1396Z" fill="white"/>
</mask>
<g mask="url(#mask0_689_1730)">
<path fill-rule="evenodd" clip-rule="evenodd" d="M33.8975 67.1782C39.1161 71.4177 45.1448 73.8338 51.5744 73.8338C61.1356 73.8338 69.815 68.475 76.256 59.7467C73.5365 56.0626 70.4191 52.9766 67.0011 50.6436L61.5133 53.3831C62.6928 55.2181 63.3798 57.4022 63.3798 59.7467C63.3798 66.2593 58.0954 71.538 51.5744 71.538C46.5075 71.538 42.1877 68.349 40.513 63.8718L33.8975 67.1753V67.1782ZM47.5122 60.3793C47.6438 61.2353 48.0447 62.0312 48.6659 62.6523C49.4359 63.4224 50.4836 63.8547 51.5744 63.8518C53.8444 63.8518 55.6851 62.0139 55.6851 59.7467C55.6851 58.6331 55.2413 57.6227 54.52 56.8812L47.515 60.3793H47.5122Z" fill="#2BAD72"/>
<path d="M35.3926 59.6546L75.3924 40.4262L66.6012 22.1396L62.061 38.2993L56.6048 26.9461L52.0618 43.1056L46.6056 31.7524L42.0626 47.9121L36.6064 36.5588L32.0634 52.7184L26.6073 41.3652L19.2817 67.4009L29.281 62.5945L35.3926 59.6574V59.6546Z" fill="#2BAD72"/>
</g>
</g>
</g>
<defs>
<clipPath id="clip0_689_1730">
<rect width="100" height="100" rx="50" fill="white"/>
</clipPath>
<clipPath id="clip1_689_1730">
<rect width="100" height="100" fill="white"/>
</clipPath>
</defs>
</svg>
