<svg width="100" height="100" viewBox="0 0 100 100" fill="none" xmlns="http://www.w3.org/2000/svg">
<rect width="100" height="100" rx="50" fill="white"/>
<g clip-path="url(#clip0_628_1972)">
<path d="M24.9617 56.3575C24.9617 58.8294 25.5019 60.7273 26.2079 61.8754C27.1336 63.3793 28.5143 64.0164 29.9219 64.0164C31.7374 64.0164 33.3983 63.5639 36.599 59.1176C39.1631 55.5538 42.1845 50.5514 44.2174 47.4153L47.6602 42.1022C50.0517 38.4123 52.8198 34.3104 55.9936 31.5301C58.5847 29.2607 61.3797 28 64.1926 28C68.9152 28 73.4136 30.7488 76.8564 35.9043C80.6241 41.5506 82.4531 48.6625 82.4531 56.0018C82.4531 60.3648 81.5969 63.5707 80.14 66.1034C78.7324 68.5528 75.989 71 71.374 71V64.0164C75.3255 64.0164 76.3117 60.3693 76.3117 56.1954C76.3117 50.2474 74.931 43.6466 71.8895 38.9301C69.731 35.5847 66.9338 33.5405 63.8564 33.5405C60.5279 33.5405 57.8495 36.0619 54.8393 40.5578C53.239 42.9464 51.596 45.8574 49.7514 49.142L47.7207 52.7554C43.6414 60.0204 42.6081 61.6751 40.5684 64.4059C36.9934 69.1877 33.9407 71 29.9219 71C25.1545 71 22.1398 68.9265 20.2728 65.8017C18.7486 63.2555 18 59.9146 18 56.1076L24.9617 56.3575Z" fill="#0081FB"/>
<path d="M23.4893 36.3974C26.681 31.4558 31.287 28 36.5699 28C39.6294 28 42.671 28.9095 45.847 31.5143C49.3212 34.3622 53.0239 39.0517 57.6434 46.7804L59.2998 49.554C63.2984 56.2449 65.5734 59.6872 66.9048 61.3104C68.6172 63.3951 69.8163 64.0164 71.3741 64.0164C75.3256 64.0164 76.3119 60.3693 76.3119 56.1954L82.4532 56.0018C82.4532 60.3648 81.597 63.5707 80.1401 66.1034C78.7325 68.5528 75.9891 71 71.3741 71C68.5051 71 65.9634 70.3741 63.1527 67.7108C60.992 65.6666 58.466 62.0353 56.5227 58.7709L50.7422 49.0723C47.8418 44.2049 45.1813 40.5758 43.6415 38.9324C41.9851 37.1651 39.8558 35.0308 36.4579 35.0308C33.7077 35.0308 31.3722 36.9692 29.4177 39.9342L23.4893 36.3974Z" fill="url(#paint0_linear_628_1972)"/>
<path d="M36.4578 35.0308C33.7076 35.0308 31.3721 36.9692 29.4176 39.9342C26.654 44.1239 24.9617 50.3645 24.9617 56.3575C24.9617 58.8294 25.5019 60.7273 26.2079 61.8754L20.2728 65.8017C18.7486 63.2555 18 59.9145 18 56.1076C18 49.1848 19.8917 41.9694 23.4891 36.3974C26.6809 31.4558 31.2869 28 36.5698 28L36.4578 35.0308Z" fill="url(#paint1_linear_628_1972)"/>
</g>
<defs>
<linearGradient id="paint0_linear_628_1972" x1="31.6725" y1="54.3403" x2="76.0528" y2="56.5719" gradientUnits="userSpaceOnUse">
<stop stop-color="#0064E1"/>
<stop offset="0.4" stop-color="#0064E1"/>
<stop offset="0.83" stop-color="#0073EE"/>
<stop offset="1" stop-color="#0082FB"/>
</linearGradient>
<linearGradient id="paint1_linear_628_1972" x1="28.0862" y1="59.2932" x2="28.0862" y2="42.8586" gradientUnits="userSpaceOnUse">
<stop stop-color="#0082FB"/>
<stop offset="1" stop-color="#0064E0"/>
</linearGradient>
<clipPath id="clip0_628_1972">
<rect width="65" height="43" fill="white" transform="translate(18 28)"/>
</clipPath>
</defs>
</svg>
