<svg width="100" height="100" viewBox="0 0 100 100" fill="none" xmlns="http://www.w3.org/2000/svg">
<g clip-path="url(#clip0_628_1940)">
<path fill-rule="evenodd" clip-rule="evenodd" d="M22.5805 0H77.4193C89.8387 0 100 10.2084 100 22.6851V77.3149C100 89.7918 89.8387 100 77.4193 100H22.5805C10.1613 100 0 89.7918 0 77.3149V22.6851C0 10.2084 10.1613 0 22.5805 0Z" fill="white"/>
<path d="M80.476 43.5136C81.077 41.6995 81.3835 39.8 81.3838 37.8881C81.3836 34.7243 80.5448 31.6177 78.9535 28.8876C75.7562 23.2962 69.825 19.8441 63.4057 19.8441C62.1428 19.8441 60.8777 19.9781 59.6432 20.2444C57.98 18.3618 55.9384 16.8547 53.6531 15.8227C51.3678 14.7906 48.8907 14.2569 46.3852 14.2568H46.2727C46.2611 14.2572 46.2436 14.2572 46.2305 14.2572C38.4557 14.2572 31.5609 19.2973 29.1707 26.7276C24.1656 27.7556 19.8449 30.909 17.3187 35.3671C15.7325 38.1138 14.8965 41.2327 14.8955 44.4082C14.8961 48.8709 16.5452 53.1746 19.5232 56.4859C18.9221 58.3 18.6155 60.1995 18.6152 62.1115C18.6155 65.2752 19.4543 68.3818 21.0453 71.112C24.2424 76.705 30.1742 80.155 36.5941 80.155C37.8581 80.1551 39.1186 80.021 40.3545 79.7548C42.018 81.6374 44.0597 83.1444 46.3452 84.1765C48.6307 85.2086 51.1079 85.7424 53.6137 85.7425H53.7262L53.7719 85.7423C61.551 85.7423 68.4436 80.7023 70.8338 73.2653C75.8389 72.2367 80.1596 69.0835 82.6857 64.6252C84.2703 61.8811 85.1047 58.7648 85.1043 55.5924C85.1038 51.1296 83.4548 46.8259 80.4768 43.5146L80.476 43.5136ZM53.7309 81.069H53.7125C50.5997 81.0681 47.5858 79.9711 45.1947 77.9688C45.3367 77.892 45.4771 77.8121 45.6156 77.7292L59.7836 69.5075C60.1371 69.3053 60.4311 69.0127 60.6356 68.6594C60.8402 68.3062 60.9479 67.9048 60.948 67.4961V47.4158L66.9365 50.8896C67.0002 50.9216 67.0439 50.9836 67.0529 51.0545V67.6727C67.0447 75.0609 61.0855 81.0543 53.7309 81.069ZM25.0807 68.7762C23.9104 66.7433 23.2939 64.4365 23.2932 62.0881C23.2932 61.3221 23.3598 60.5543 23.4895 59.7997C23.5947 59.863 23.7785 59.9757 23.9104 60.0518L38.0783 68.2735C38.4317 68.4804 38.8333 68.5893 39.2422 68.5892C39.6512 68.5892 40.0528 68.4801 40.4061 68.2731L57.7035 58.2391V65.1868C57.7054 65.2222 57.6987 65.2576 57.6837 65.2898C57.6688 65.322 57.6462 65.3499 57.618 65.3712L43.2957 73.6789C41.2691 74.8506 38.9719 75.4676 36.6336 75.4684C34.2929 75.468 31.9935 74.8495 29.9659 73.6748C27.9382 72.5001 26.2536 70.8105 25.0809 68.7754L25.0807 68.7762ZM21.3535 37.7032C22.9095 34.9878 25.3665 32.9087 28.2945 31.8297C28.2945 31.9523 28.2875 32.1693 28.2875 32.3202V48.7634L28.2873 48.7772C28.2874 49.1854 28.395 49.5864 28.5993 49.9394C28.8035 50.2923 29.0971 50.5847 29.4502 50.7868L46.7479 60.8194L40.7594 64.2932C40.7298 64.3128 40.6959 64.3247 40.6607 64.3279C40.6254 64.3311 40.59 64.3254 40.5574 64.3115L26.2338 55.9968C24.2089 54.8184 22.5278 53.126 21.359 51.0892C20.1903 49.0525 19.5749 46.7429 19.5746 44.3919C19.5756 42.0446 20.1892 39.7385 21.3543 37.7038L21.3535 37.7032ZM70.5541 49.2057L53.2566 39.1717L59.2451 35.6993C59.2746 35.6797 59.3085 35.6677 59.3438 35.6645C59.379 35.6613 59.4145 35.6669 59.4471 35.6808L73.7707 43.9885C77.8936 46.3813 80.4371 50.8062 80.4371 55.5912C80.4371 61.2038 76.951 66.226 71.7094 68.1644V51.2293C71.7102 51.223 71.7102 51.2165 71.7102 51.2104C71.7102 50.3826 71.2686 49.6174 70.5541 49.2057ZM76.5146 40.1934C76.4094 40.1285 76.2256 40.0172 76.0938 39.9411L61.9258 31.7194C61.5725 31.5125 61.171 31.4035 60.7621 31.4033C60.3535 31.4033 59.9516 31.5128 59.5986 31.7194L42.301 41.7534V34.8057L42.3008 34.7937C42.3008 34.7602 42.3085 34.7272 42.3235 34.6972C42.3384 34.6672 42.36 34.6412 42.3867 34.6211L56.709 26.3205C58.7349 25.1471 61.0322 24.5294 63.3707 24.5292C70.7348 24.5292 76.7068 30.5289 76.7068 37.9271C76.7064 38.6863 76.6421 39.4441 76.5146 40.1924V40.1934ZM39.0453 52.5765L33.0555 49.1027C33.024 49.087 32.997 49.0637 32.9767 49.0349C32.9564 49.0062 32.9434 48.9728 32.9391 48.9379V32.3198C32.9422 24.9254 38.9143 18.9307 46.2752 18.9307C49.3927 18.9314 52.4117 20.0286 54.8082 22.0317C54.6664 22.1089 54.526 22.1888 54.3873 22.2715L40.2193 30.493C39.8659 30.6951 39.5719 30.9876 39.3674 31.3408C39.1629 31.694 39.0552 32.0953 39.0551 32.5039V32.5172L39.0453 52.5765ZM42.2982 45.5303L50.0023 41.0601L57.7062 45.5274V54.4651L50.0023 58.9324L42.2982 54.4651V45.5303Z" fill="black"/>
</g>
<defs>
<clipPath id="clip0_628_1940">
<rect width="100" height="100" rx="50" fill="white"/>
</clipPath>
</defs>
</svg>
