<svg width="100" height="100" viewBox="0 0 100 100" fill="none" xmlns="http://www.w3.org/2000/svg">
<rect width="100" height="100" rx="50" fill="#FF4271"/>
<g clip-path="url(#clip0_686_1730)">
<path d="M35.0894 86.042C39.6851 87.9463 44.7251 89 50 89C60.7656 89 70.522 84.6328 77.5742 77.5742C81.167 73.9878 84.0679 69.6904 86.042 64.9106C87.9463 60.3149 89 55.2749 89 50C89 39.2344 84.6328 29.478 77.5742 22.4258C73.9815 18.833 69.6841 15.9385 64.9106 13.958C60.3149 12.0537 55.2749 11 50 11C44.7251 11 39.6851 12.0537 35.0894 13.958C30.3096 15.9385 26.0186 18.833 22.4258 22.4258C18.833 26.0185 15.9385 30.3159 13.958 35.0893C12.0537 39.685 11 44.7251 11 50C11 55.2749 12.0537 60.3149 13.958 64.9106C15.9385 69.6904 18.833 73.9814 22.4258 77.5742C26.0186 81.167 30.3096 84.0679 35.0894 86.042ZM50.3535 58.963C48.7793 60.5626 48.7983 63.1398 50.4043 64.7077C52.0102 66.2755 54.5811 66.2628 56.1489 64.6569L68 52.6154C69.5552 51.0285 69.5552 48.4957 68 46.9152L56.3711 35.0958C54.7969 33.4962 52.2261 33.4772 50.6265 35.0451C49.0269 36.6193 49.0078 39.1901 50.5757 40.7897L59.3989 49.7589L50.3535 58.963ZM38.2061 78.4946C34.4419 76.9331 31.0459 74.6416 28.2021 71.7978C25.3584 68.9541 23.0669 65.5581 21.5054 61.7939C20.001 58.1694 19.1758 54.1831 19.1758 50C19.1758 45.8169 20.0073 41.8369 21.5054 38.206C23.0669 34.4419 25.3584 31.0459 28.2021 28.2021C31.0459 25.3584 34.4419 23.0669 38.2061 21.5054C41.8369 20.0073 45.8169 19.1758 50 19.1758C54.1831 19.1758 58.1631 20.0073 61.7939 21.5054C65.5581 23.0669 68.9541 25.3584 71.7979 28.2021C74.6416 31.0459 76.9331 34.4355 78.4946 38.2061C79.999 41.8306 80.8242 45.8169 80.8242 50C80.8242 54.1831 79.9927 58.1631 78.4946 61.7939C76.9331 65.5581 74.6416 68.9541 71.7979 71.7978C68.9541 74.6416 65.5581 76.9331 61.7939 78.4946C58.1694 79.999 54.1831 80.8242 50 80.8242C45.8169 80.8242 41.8369 79.9927 38.2061 78.4946Z" fill="white"/>
<path d="M32.7578 64.9106C31.1518 63.3428 31.1328 60.7656 32.707 59.166L41.7524 49.9619L32.9292 40.9927C31.3613 39.3931 31.3804 36.8223 32.98 35.248C34.5796 33.6802 37.1504 33.6992 38.7246 35.2988L50.3535 47.1182C51.9087 48.6987 51.9087 51.2314 50.3535 52.8184L38.5024 64.8599C36.9346 66.4658 34.3638 66.4785 32.7578 64.9106Z" fill="white"/>
</g>
<defs>
<clipPath id="clip0_686_1730">
<rect width="78" height="78" fill="white" transform="translate(89 89) rotate(-180)"/>
</clipPath>
</defs>
</svg>
