<svg width="100" height="100" viewBox="0 0 100 100" fill="none" xmlns="http://www.w3.org/2000/svg">
<rect width="100" height="100" rx="50" fill="#5542FF"/>
<g clip-path="url(#clip0_643_2380)">
<path fill-rule="evenodd" clip-rule="evenodd" d="M50.4979 23C62.8625 23 72.8844 27.7272 72.8844 33.55C72.8844 39.377 62.8582 44.0999 50.4979 44.0999C38.1375 44.0999 28.1114 39.3727 28.1114 33.55C28.1114 27.7272 38.1375 23 50.4979 23ZM28.1114 58.2945V66.3946C32.0944 80.641 71.4453 77.8892 72.8886 65.6657V57.5742C70.9228 70.9924 31.2593 71.9586 28.1114 58.2945ZM28 37.2075V45.1178C31.9831 59.0321 71.5524 57.1515 73 45.217V37.311C71.0299 50.4187 31.1479 50.5524 28 37.2075ZM28 47.4297V55.5298C31.9831 69.7761 71.5524 67.8525 73 55.629V47.5375C71.0299 60.9557 31.1479 61.0938 28 47.4297Z" fill="white"/>
</g>
<defs>
<clipPath id="clip0_643_2380">
<rect width="45" height="53" fill="white" transform="translate(28 23)"/>
</clipPath>
</defs>
</svg>
