<?xml version="1.0" ?><svg viewBox="0 0 512 512" xmlns="http://www.w3.org/2000/svg"><defs><style>.cls-1{fill:#f84437;}.cls-1,.cls-2,.cls-3,.cls-4{stroke:#000;stroke-linecap:round;stroke-linejoin:round;stroke-width:20px;}.cls-2{fill:#2299f8;}.cls-3{fill:#5acf5f;}.cls-4{fill:#ffc107;}</style></defs><g data-name="Layer 2" id="Layer_2"><g id="chrome"><path class="cls-1" d="M78.22,91.16C186.06-34.87,386-10,460.75,137.23c-52.63,0-135,0-179.64,0-32.36,0-53.27-.72-75.88,11.24-26.6,14.07-46.69,40.13-53.68,70.77Z"/><path class="cls-2" d="M179.35,257.71c0,40.45,32.75,73.34,73,73.34s73-32.89,73-73.34-32.75-73.34-73-73.34-73,32.9-73,73.34Z"/><path class="cls-3" d="M269.48,364.49c-42.88,12.78-93.08-1.39-120.56-49.08-21-36.36-76.45-133.36-101.62-177.49C-41,273.8,35.08,459,195.33,490.56Z"/><path class="cls-4" d="M334.9,178.71a110.78,110.78,0,0,1,20.29,135.83c-19.14,33.18-80.3,136.82-109.92,187,173.49,10.73,300-160,242.83-322.85Z"/></g></g></svg>