<svg width="100" height="100" viewBox="0 0 100 100" fill="none" xmlns="http://www.w3.org/2000/svg">
<g clip-path="url(#clip0_628_1944)">
<path d="M2.77711 64.157C8.86017 84.4401 27.674 99.2308 49.937 99.2308C77.1261 99.2308 99.1676 77.1893 99.1676 50.0002C99.1676 22.811 77.1261 0.769531 49.937 0.769531C23.8478 0.769531 2.49865 21.0664 0.8125 46.7294C4.00326 52.0786 5.24172 55.3878 2.77403 64.157H2.77711Z" fill="url(#paint0_linear_628_1944)"/>
<path d="M47.4 37.6695L47.4045 37.9127L35.3584 55.4127C33.4076 55.3234 31.4508 55.6666 29.5922 56.4311C28.7832 56.7601 28.0108 57.1726 27.2875 57.6619L0.833961 46.7588C0.833961 46.7588 0.221656 56.8295 2.77224 64.3342L21.4738 72.051C22.3969 76.2479 25.2892 79.9279 29.5383 81.6971C36.4523 84.5695 44.5076 81.251 47.389 74.3402C48.132 72.5604 48.4906 70.6437 48.4414 68.7156L65.6613 56.4002L66.0845 56.408C76.3998 56.408 84.7844 47.9988 84.7844 37.6697C84.7844 27.3404 76.4152 18.9619 66.0845 18.9404C55.7738 18.9404 47.3845 27.3404 47.3845 37.6695H47.4ZM44.5076 73.1313C42.2707 78.5158 36.0984 81.0496 30.7338 78.8143C28.3531 77.8139 26.4235 75.973 25.3123 73.642L31.4 76.165C32.3444 76.5577 33.3571 76.76 34.3799 76.7604C37.506 76.7604 40.34 74.8697 41.54 71.982C43.1767 68.0512 41.2922 63.4682 37.3631 61.8266L31.0553 59.2189C33.483 58.2959 36.2429 58.265 38.8246 59.3373C41.4398 60.4189 43.4398 62.4559 44.5107 65.0605C45.5814 67.665 45.5752 70.5373 44.4953 73.1313M66.1013 50.1543C59.2644 50.1359 53.6492 44.5098 53.6429 37.6729C53.6508 30.8375 59.266 25.2129 66.1013 25.1943C72.9383 25.2113 78.5552 30.8359 78.5629 37.6729C78.5568 44.5098 72.9383 50.1375 66.1013 50.1543ZM56.766 37.6529C56.7615 32.516 60.9828 28.2838 66.1199 28.276C71.2814 28.276 75.4799 32.476 75.4799 37.6529C75.483 42.7912 71.2584 47.0221 66.1199 47.0268C60.983 47.0189 56.7615 42.7898 56.7644 37.6529H56.766Z" fill="white"/>
<path d="M2.00758 63.3875C8.09064 83.6705 26.9044 98.4613 49.1674 98.4613C76.3566 98.4613 98.3981 76.4198 98.3981 49.2306C98.3981 22.0415 76.3566 0 49.1674 0C23.0783 0 1.72912 20.2969 0.0429688 45.9599C3.23373 51.3091 4.47219 54.6183 2.0045 63.3875H2.00758Z" fill="url(#paint1_linear_628_1944)"/>
<path d="M46.6306 36.9002L46.6351 37.1432L34.589 54.6432C32.6383 54.5539 30.6812 54.8971 28.8228 55.6617C28.0139 55.9907 27.2415 56.4031 26.5181 56.8924L0.0644227 45.9893C0.0644227 45.9893 -0.547882 56.0602 2.0029 63.5647L20.7045 71.2814C21.6275 75.4785 24.5197 79.1584 28.7689 80.9277C35.683 83.8 43.7383 80.4816 46.6197 73.5709C47.3627 71.7911 47.7213 69.8743 47.672 67.9463L64.892 55.6309L65.315 55.6387C75.6304 55.6387 84.015 47.2293 84.015 36.9002C84.015 26.5709 75.6459 18.1926 65.315 18.1709C55.0045 18.1709 46.615 26.5709 46.615 36.9002H46.6306ZM43.7381 72.3615C41.5013 77.7463 35.3289 80.2801 29.9644 78.0447C27.5837 77.0443 25.654 75.2033 24.5427 72.8723L30.6306 75.3955C31.5751 75.7882 32.5877 75.9905 33.6105 75.9908C36.7367 75.9908 39.5705 74.1002 40.7705 71.2123C42.4074 67.2816 40.5228 62.6986 36.5935 61.057L30.2859 58.4492C32.7136 57.5262 35.4734 57.4955 38.055 58.5678C40.6705 59.6492 42.6705 61.6861 43.7412 64.2908C44.8121 66.8955 44.8058 69.7678 43.7259 72.3615M65.3318 49.385C58.4949 49.3664 52.8795 43.7404 52.8734 36.9035C52.881 30.068 58.4965 24.4434 65.3318 24.425C72.1687 24.442 77.7855 30.0666 77.7933 36.9035C77.7871 43.7402 72.1687 49.368 65.3318 49.385ZM55.9965 36.8834C55.9918 31.7467 60.2132 27.5143 65.3502 27.5064C70.5117 27.5064 74.7101 31.7064 74.7101 36.8834C74.7132 42.0219 70.4886 46.2525 65.3502 46.2572C60.2134 46.2494 55.9918 42.0203 55.9947 36.8834H55.9965Z" fill="white"/>
</g>
<defs>
<linearGradient id="paint0_linear_628_1944" x1="49.9908" y1="0.769531" x2="49.9908" y2="99.2308" gradientUnits="userSpaceOnUse">
<stop stop-color="#111D2E"/>
<stop offset="0.21" stop-color="#051839"/>
<stop offset="0.41" stop-color="#0A1B48"/>
<stop offset="0.58" stop-color="#132E62"/>
<stop offset="0.74" stop-color="#144B7E"/>
<stop offset="0.87" stop-color="#136497"/>
<stop offset="1" stop-color="#1387B8"/>
</linearGradient>
<linearGradient id="paint1_linear_628_1944" x1="49.2213" y1="0" x2="49.2213" y2="98.4613" gradientUnits="userSpaceOnUse">
<stop stop-color="#111D2E"/>
<stop offset="0.21" stop-color="#051839"/>
<stop offset="0.41" stop-color="#0A1B48"/>
<stop offset="0.58" stop-color="#132E62"/>
<stop offset="0.74" stop-color="#144B7E"/>
<stop offset="0.87" stop-color="#136497"/>
<stop offset="1" stop-color="#1387B8"/>
</linearGradient>
<clipPath id="clip0_628_1944">
<rect width="100" height="100" fill="white"/>
</clipPath>
</defs>
</svg>
