<svg width="100" height="100" viewBox="0 0 100 100" fill="none" xmlns="http://www.w3.org/2000/svg">
<g clip-path="url(#clip0_628_1956)">
<path d="M50 100C77.6142 100 100 77.6142 100 50C100 22.3858 77.6142 0 50 0C22.3858 0 0 22.3858 0 50C0 77.6142 22.3858 100 50 100Z" fill="url(#paint0_linear_628_1956)"/>
<path fill-rule="evenodd" clip-rule="evenodd" d="M22.6328 49.4729C37.209 43.1213 46.9277 38.9358 51.791 36.9123C65.6777 31.137 68.5625 30.133 70.4433 30.0998C70.8574 30.094 71.7812 30.1955 72.3808 30.6819C72.8867 31.092 73.0254 31.6467 73.0918 32.0354C73.1582 32.426 73.2422 33.3108 73.1758 34.0041C72.4238 41.9104 69.168 61.0959 67.5117 69.9514C66.8105 73.6995 65.4297 74.9553 64.0937 75.0784C61.1914 75.3459 58.9863 73.1584 56.1738 71.3147C51.7734 68.4319 49.2871 66.635 45.0156 63.8205C40.0781 60.5666 43.2793 58.7795 46.0918 55.8577C46.8281 55.092 59.6211 43.4553 59.8691 42.4006C59.9004 42.2678 59.9297 41.7756 59.6367 41.5159C59.3437 41.2561 58.9121 41.3459 58.6015 41.4163C58.1601 41.5159 51.1308 46.1623 37.5117 55.3557C35.5156 56.7268 33.707 57.3928 32.0879 57.3596C30.3027 57.3205 26.8691 56.3498 24.3164 55.5198C21.1855 54.5022 18.6972 53.9631 18.914 52.2346C19.0254 51.3342 20.2656 50.4143 22.6328 49.4729Z" fill="white"/>
</g>
<defs>
<linearGradient id="paint0_linear_628_1956" x1="50" y1="0.75" x2="50" y2="100" gradientUnits="userSpaceOnUse">
<stop stop-color="#2AABEE"/>
<stop offset="1" stop-color="#229ED9"/>
</linearGradient>
<clipPath id="clip0_628_1956">
<rect width="100" height="100" fill="white"/>
</clipPath>
</defs>
</svg>
