<svg width="100" height="100" viewBox="0 0 100 100" fill="none" xmlns="http://www.w3.org/2000/svg">
<g clip-path="url(#clip0_518_1457)">
<rect width="100" height="100" rx="50" fill="white"/>
<g clip-path="url(#clip1_518_1457)">
<path d="M65.37 76.5359C70.8809 73.5842 74.9893 68.7126 79.6883 64.7018C86.3065 66.3013 93.0475 67.2605 99.8381 67.703C92.3096 84.9993 76.5391 98.4077 57.8659 102C52.8471 94.6693 49.6735 86.3279 47.2133 77.8408C53.2653 77.8156 59.5637 78.6031 65.37 76.5367V76.5359ZM-1.91894 47.0866C-0.811712 19.5305 25.2672 -4.67868 52.97 -2.90755C82.443 -1.77588 107.883 28.0436 102.2 57.5181C97.452 57.4692 92.7286 55.7225 90.1448 51.5148C83.2809 41.1573 80.1317 28.8807 73.8829 18.1775C69.4043 18.891 64.9518 19.7525 60.5237 20.7362C62.2215 32.7671 69.7737 42.8292 72.5543 54.516C71.2746 64.727 58.4321 70.4594 49.575 65.7106C42.219 62.8811 39.1926 55.0326 36.634 48.2426C34.1739 41.1573 31.394 34.1697 27.6541 27.6498C21.9707 27.5269 16.1156 27.6994 10.974 30.4549C15.599 54.1475 28.5645 75.2569 33.9282 98.7534C12.5231 91.913 -3.27187 69.6718 -1.91815 47.0866H-1.91894Z" fill="#5DBA1E"/>
</g>
</g>
<defs>
<clipPath id="clip0_518_1457">
<rect width="100" height="100" rx="50" fill="white"/>
</clipPath>
<clipPath id="clip1_518_1457">
<rect width="105" height="105" fill="white" transform="translate(-2 -3)"/>
</clipPath>
</defs>
</svg>
