<svg width="100" height="100" viewBox="0 0 100 100" fill="none" xmlns="http://www.w3.org/2000/svg">
<g clip-path="url(#clip0_628_1982)">
<path fill-rule="evenodd" clip-rule="evenodd" d="M50 0C77.6143 0 100 22.3857 100 50C100 77.6143 77.6143 100 50 100C22.3857 100 0 77.6143 0 50C0 22.3857 22.3857 0 50 0Z" fill="black"/>
<path d="M62.2345 30.7715H68.7581L54.5056 47.0619L71.2731 69.2289H58.1439L47.8612 55.7844L36.0952 69.2289H29.5673L44.8118 51.8047L28.7271 30.7715H42.1888L51.4837 43.06L62.2345 30.7715ZM59.9446 65.3238H63.5599L40.2247 34.4715H36.3458L59.9446 65.3238Z" fill="white"/>
</g>
<defs>
<clipPath id="clip0_628_1982">
<rect width="100" height="100" fill="white"/>
</clipPath>
</defs>
</svg>
