<svg width="100" height="100" viewBox="0 0 100 100" fill="none" xmlns="http://www.w3.org/2000/svg">
<rect width="100" height="100" rx="50" fill="#0A0A0A"/>
<path d="M56.8516 70.1449C54.5449 72.9335 51.7503 75.6979 48.486 78.4383C49.1907 78.3419 49.8953 78.2275 50.5819 78.095C52.4671 77.7155 54.2739 77.1614 56.0265 76.4026C56.9179 76.0171 57.7851 75.6015 58.6163 75.1498L58.6825 75.3426C59.0017 76.252 59.4233 77.0048 59.9232 77.6071C59.0078 78.101 58.0682 78.5587 57.1046 78.9683C55.1652 79.8054 53.1657 80.4137 51.1059 80.8353C49.0522 81.2569 46.9201 81.4617 44.7278 81.4617C42.5355 81.4617 40.4276 81.2509 38.3497 80.8353C36.314 80.4378 34.3506 79.8295 32.4294 79.0104C32.4113 79.0104 32.3752 78.9923 32.3511 78.9743C30.4479 78.1552 28.6411 77.1675 26.9427 76.0412C25.2503 74.921 23.6904 73.6261 22.257 72.1987C20.8115 70.7713 19.5347 69.2114 18.4144 67.513C17.2701 65.8206 16.3005 64.0078 15.4814 62.1046C14.6442 60.1652 14.0359 58.1657 13.6143 56.1059C13.2108 54.0522 13 51.9201 13 49.7338C13 47.5476 13.2108 45.4336 13.6264 43.3558C14.0239 41.3201 14.6382 39.3567 15.4513 37.4354C15.4513 37.4173 15.4693 37.3812 15.4874 37.3571C16.3065 35.4358 17.2942 33.6471 18.4205 31.9487C19.5407 30.2563 20.8356 28.6964 22.263 27.263C23.6904 25.8175 25.2503 24.5407 26.9487 23.4205C28.6411 22.2761 30.4539 21.3065 32.3571 20.4874C34.2964 19.6502 36.296 19.0419 38.3558 18.6203C40.4095 18.2108 42.5416 18 44.7338 18C46.9261 18 49.0341 18.2108 51.1119 18.6264C53.1476 19.0239 55.111 19.6322 57.0323 20.4513C57.0504 20.4513 57.0865 20.4693 57.1106 20.4874C59.0138 21.3065 60.8206 22.2942 62.519 23.4205C64.2114 24.5407 65.7713 25.8356 67.2047 27.263C68.6502 28.6904 69.927 30.2503 71.0472 31.9487C72.1915 33.6411 73.1612 35.4539 73.9803 37.3571C74.8175 39.2964 75.4258 41.296 75.8474 43.3558C75.8714 43.4762 75.8955 43.5967 75.9196 43.7171L72.842 42.633C72.4867 41.2056 72.0229 39.8204 71.4327 38.4653C70.9569 37.3451 70.4209 36.279 69.8367 35.2491H60.5315C61.2603 36.4959 61.8987 37.7365 62.4467 38.9772L58.7126 37.6643C58.273 36.8632 57.7972 36.0562 57.2792 35.2491H51.8407C51.2023 35.0504 50.5157 35.0022 49.8472 35.1046C49.6364 35.1407 49.4256 35.1889 49.2148 35.2491H46.1191V48.3426H49.1726L50.1483 51.1191H46.1191V64.2125H54.7617L55.7374 66.989H46.1191V76.782C50.0399 73.5659 53.256 70.3136 55.7615 67.0613L56.8516 70.1449ZM80.6354 73.8911C80.1717 74.3067 79.455 74.3127 79.0334 73.8911L70.6136 65.5195L66.6205 73.4635C65.416 75.8605 63.2719 76.9446 62.26 74.0778L50.1483 39.6819C49.9014 38.9772 50.1965 38.6942 50.8951 38.9411L85.285 51.0468C88.1518 52.0586 87.0617 54.2027 84.6707 55.4073L76.7267 59.4004L85.0983 67.8141C85.5139 68.2357 85.5139 68.9585 85.0983 69.4162L80.6354 73.8911ZM40.9997 78.4383C36.5068 74.668 32.9112 70.8616 30.2431 67.0011H21.468C22.3051 68.1454 23.2387 69.2114 24.2445 70.2172C25.5574 71.5302 26.9667 72.6926 28.5086 73.7224C30.0323 74.7523 31.6886 75.6437 33.4773 76.4086C33.5014 76.4206 33.5195 76.4206 33.5376 76.4387C35.2721 77.1614 37.0609 77.7336 38.9219 78.095C39.6085 78.2275 40.3132 78.3419 41.0178 78.4383H40.9997ZM19.6431 64.2186H28.4785C26.0212 59.9183 24.6901 55.5398 24.5396 51.1251H15.8186C15.8969 52.6489 16.0656 54.1124 16.3547 55.5578C16.7341 57.443 17.2882 59.2498 18.0471 61.0024C18.5229 62.1226 19.0529 63.1887 19.6431 64.2186ZM15.8186 48.3426H24.5938C24.919 44.0002 26.3645 39.6457 28.9362 35.2491H19.6431C19.0529 36.279 18.5229 37.3451 18.0471 38.4653C18.029 38.4834 18.029 38.5014 18.0109 38.5195C17.2882 40.254 16.716 42.0428 16.3547 43.9038C16.0656 45.3553 15.8728 46.8188 15.8186 48.3426ZM21.4499 32.4666H30.7189C33.3689 28.6603 36.8501 24.8358 41.1925 20.9873C40.4095 21.0836 39.6507 21.1981 38.9099 21.3486C37.0247 21.7281 35.2179 22.2822 33.4653 23.041C31.6946 23.7999 30.0383 24.6973 28.4965 25.7272C26.9547 26.7571 25.5454 27.9134 24.2324 29.2324C23.2266 30.2442 22.2931 31.3042 21.4559 32.4486V32.4666H21.4499ZM48.2752 20.9873C52.6357 24.8298 56.1168 28.6603 58.7428 32.4666H68.0118C67.1746 31.3223 66.2411 30.2563 65.2353 29.2505C63.9223 27.9375 62.513 26.7751 60.9712 25.7453C59.4474 24.7154 57.7912 23.824 56.0024 23.0591C55.9843 23.041 55.9663 23.041 55.9482 23.023C54.2136 22.3002 52.4249 21.7281 50.5639 21.3667C49.805 21.2161 49.0401 21.1017 48.2812 21.0054V20.9873H48.2752ZM46.1191 22.7941V32.4666H55.3339C52.9188 29.2686 49.8532 26.0524 46.1191 22.7941ZM43.3426 76.782V66.995H33.652C36.1454 70.2714 39.3857 73.5478 43.3426 76.782ZM43.3426 64.2186V51.1191H27.3161C27.4847 55.5157 28.9723 59.8762 31.7127 64.2125H43.3426V64.2186ZM43.3426 48.3426V35.2491H32.1885C29.3337 39.6819 27.7316 44.0424 27.3703 48.3426H43.3426ZM43.3426 32.4666V22.7941C39.6145 26.0464 36.5489 29.2686 34.1278 32.4666H43.3426Z" fill="white"/>
</svg>
