<svg width="100" height="100" viewBox="0 0 100 100" fill="none" xmlns="http://www.w3.org/2000/svg">
<g clip-path="url(#clip0_515_1485)">
<rect width="100" height="100" rx="50" fill="white"/>
<g clip-path="url(#clip1_515_1485)">
<path fill-rule="evenodd" clip-rule="evenodd" d="M111.364 79.6593C111.364 80.3181 111.342 81.7485 111.301 82.8542C111.203 85.5574 110.985 89.0463 110.654 90.6343C110.213 92.8948 109.465 95.0873 108.432 97.1535C106.159 101.558 102.512 105.135 98.0217 107.362C95.9041 108.379 93.6573 109.113 91.3412 109.545C89.7376 109.862 86.2092 110.072 83.4742 110.168C82.3452 110.208 80.8878 110.227 80.2191 110.227H19.7903C19.1191 110.227 17.6617 110.206 16.5351 110.166C13.7809 110.069 10.2262 109.855 8.60818 109.533C6.3045 109.098 4.07007 108.363 1.96364 107.35C-2.52786 105.117 -6.17461 101.534 -8.4442 97.1229C-9.48045 95.0445 -10.2286 92.8393 -10.6686 90.5661C-10.9922 88.9922 -11.2056 85.5244 -11.3038 82.8448C-11.3446 81.739 -11.3638 80.3063 -11.3638 79.6428V20.3331C-11.3638 19.6744 -11.3422 18.244 -11.3038 17.1382C-11.1936 14.4421 -10.9755 10.9461 -10.6447 9.36514C-10.2018 7.10424 -9.4546 4.91119 -8.42263 2.84366C-6.14748 -1.55884 -2.50057 -5.13409 1.98762 -7.36204C4.10521 -8.37909 6.35199 -9.11336 8.6681 -9.54528C10.2717 -9.86288 13.8049 -10.0723 16.5351 -10.1687C17.6617 -10.2087 19.1215 -10.2275 19.7975 -10.2275H80.2263C80.8974 -10.2275 82.3548 -10.2064 83.4814 -10.1687C86.2284 -10.0605 89.7904 -9.84641 91.4011 -9.52175C93.7047 -9.08712 95.9391 -8.35373 98.0457 -7.34086C102.531 -5.10785 106.174 -1.52847 108.444 2.8766C109.48 4.95498 110.228 7.16016 110.668 9.43337C110.992 11.0073 111.205 14.4703 111.304 17.1547C111.344 18.2604 111.364 19.6932 111.364 20.3496V79.6593Z" fill="url(#paint0_linear_515_1485)"/>
<path fill-rule="evenodd" clip-rule="evenodd" d="M71.9569 28.0107C69.0974 25.1439 65.6941 22.8711 61.9446 21.3243C58.1952 19.7775 54.1743 18.9875 50.1155 19.0001C33.1119 19.0001 19.2577 32.7812 19.2577 49.7233C19.2529 55.1139 20.675 60.4107 23.3811 65.0804L19 81L35.3655 76.7247C39.8912 79.18 44.9629 80.4674 50.1173 80.4693H50.1297C67.144 80.4693 80.9999 66.6883 80.9999 49.7462C81.0092 45.7088 80.2143 41.7096 78.6612 37.9798C77.1081 34.2499 74.8276 30.8634 71.9516 28.016L71.9569 28.0107ZM50.1244 75.2972C45.5265 75.298 41.0131 74.0675 37.0575 71.7348L36.1173 71.1776L26.4061 73.7053L28.9992 64.2826L28.3913 63.3151C25.8131 59.2489 24.4502 54.5367 24.4617 49.7286C24.4617 35.6415 35.9734 24.1776 50.1386 24.1776C53.5093 24.178 56.8469 24.8396 59.9605 26.1244C63.0742 27.4093 65.9029 29.2922 68.2851 31.6656C70.6672 34.039 72.556 36.8563 73.8435 39.9566C75.1311 43.0568 75.7921 46.3792 75.7888 49.7339C75.7764 63.8263 64.2665 75.2866 50.1226 75.2866L50.1244 75.2972ZM64.1918 56.1583C63.424 55.7692 59.6277 53.9172 58.9221 53.6607C58.2165 53.4042 57.7046 53.2733 57.1803 54.0499C56.656 54.8264 55.1862 56.5457 54.7347 57.0569C54.2833 57.5681 53.8354 57.6388 53.0694 57.2497C52.3034 56.8605 49.808 56.0522 46.863 53.4361C44.5738 51.4019 43.0222 48.8831 42.5708 48.1295C42.1193 47.376 42.5192 46.9426 42.912 46.5676C43.2675 46.2262 43.6798 45.6726 44.0691 45.2233C44.4583 44.774 44.5809 44.4592 44.8369 43.9391C45.0928 43.4191 44.9684 42.9804 44.7746 42.5948C44.5809 42.2092 43.0329 38.4292 42.4037 36.8903C41.7834 35.385 41.1383 35.5955 40.6637 35.5689C40.1892 35.5424 39.7004 35.5459 39.1903 35.5459C38.7999 35.5564 38.4158 35.6467 38.062 35.8113C37.7082 35.976 37.3923 36.2114 37.134 36.5029C36.423 37.267 34.4324 39.1314 34.4324 42.9097C34.4324 46.6879 37.1944 50.3388 37.5818 50.8535C37.9693 51.3683 43.0222 59.1247 50.7589 62.4466C52.5966 63.2319 54.0327 63.7042 55.1524 64.0704C56.7259 64.5422 58.3877 64.6457 60.008 64.3728C61.4921 64.1553 64.5722 62.5173 65.2173 60.7255C65.8625 58.9336 65.8625 57.3947 65.6706 57.0781C65.4786 56.7615 64.9756 56.5475 64.1972 56.1548L64.1918 56.1583Z" fill="white"/>
</g>
</g>
<defs>
<linearGradient id="paint0_linear_515_1485" x1="49.7346" y1="-10.1277" x2="49.7346" y2="109.805" gradientUnits="userSpaceOnUse">
<stop stop-color="#61FD7D"/>
<stop offset="1" stop-color="#2BB826"/>
</linearGradient>
<clipPath id="clip0_515_1485">
<rect width="100" height="100" rx="50" fill="white"/>
</clipPath>
<clipPath id="clip1_515_1485">
<rect width="100" height="100" fill="white"/>
</clipPath>
</defs>
</svg>
