<svg width="100" height="100" viewBox="0 0 100 100" fill="none" xmlns="http://www.w3.org/2000/svg">
<rect width="100" height="100" rx="50" fill="white"/>
<g clip-path="url(#clip0_628_1885)">
<path fill-rule="evenodd" clip-rule="evenodd" d="M83.3055 36.4033C83.3055 36.4033 82.6417 31.7162 80.5986 29.6581C78.0097 26.9512 75.1108 26.9338 73.7856 26.7768C64.2774 26.084 49.9964 26.084 49.9964 26.084H49.9715C49.9715 26.084 35.697 26.084 26.1834 26.7768C24.8529 26.9385 21.9582 26.9498 19.3704 29.6581C17.3259 31.7162 16.6762 36.4033 16.6762 36.4033C16.6762 36.4033 15.9995 41.9036 15.9995 47.4155V52.5695C15.9995 58.0698 16.6758 63.5813 16.6758 63.5813C16.6758 63.5813 17.3396 68.2684 19.37 70.33C21.9577 73.0369 25.3586 72.949 26.8768 73.2378C32.3205 73.7574 50.001 73.9141 50.001 73.9141C50.001 73.9141 64.2943 73.8888 73.8028 73.2088C75.1333 73.0518 78.0268 73.0359 80.6158 70.3276C82.66 68.2694 83.3226 63.5772 83.3226 63.5772C83.3226 63.5772 83.9997 58.0769 83.9997 52.5655V47.4118C83.9861 41.9115 83.3094 36.4001 83.3094 36.4001L83.3057 36.4037L83.3053 36.4033H83.3055ZM42.9528 58.8223V39.7114L61.3222 49.2988L42.9528 58.8223Z" fill="#FF0000"/>
</g>
<defs>
<clipPath id="clip0_628_1885">
<rect width="68" height="68" fill="white" transform="translate(16 16)"/>
</clipPath>
</defs>
</svg>
